<?xml version="1.0" standalone="no"?>
<!DOCTYPE svg PUBLIC "-//W3C//DTD SVG 20010904//EN"
 "http://www.w3.org/TR/2001/REC-SVG-20010904/DTD/svg10.dtd">
<svg version="1.0" xmlns="http://www.w3.org/2000/svg"
 width="260.000000pt" height="260.000000pt" viewBox="0 0 260.000000 260.000000"
 preserveAspectRatio="xMidYMid meet">
<metadata>
Created by potrace 1.11, written by Peter Selinger 2001-2013
</metadata>
<g transform="translate(0.000000,260.000000) scale(0.100000,-0.100000)"
fill="#000000" stroke="none">
<path d="M0 1300 l0 -1300 1300 0 1300 0 0 1300 0 1300 -1300 0 -1300 0 0
-1300z m2090 5 l0 -845 -355 0 -355 0 0 845 0 845 355 0 355 0 0 -845z m-1093
-177 c80 -29 172 -121 201 -201 29 -77 29 -177 1 -252 -27 -72 -104 -156 -176
-191 -79 -39 -194 -45 -276 -14 -74 28 -131 72 -173 133 -44 64 -58 115 -58
207 1 150 92 272 242 326 59 21 172 17 239 -8z"/>
</g>
</svg>
